<?xml version="1.0" standalone="no"?>
<!DOCTYPE svg PUBLIC "-//W3C//DTD SVG 20010904//EN"
 "http://www.w3.org/TR/2001/REC-SVG-20010904/DTD/svg10.dtd">
<svg version="1.0" xmlns="http://www.w3.org/2000/svg"
 width="32.000000pt" height="32.000000pt" viewBox="0 0 32.000000 32.000000"
 preserveAspectRatio="xMidYMid meet">

<g transform="translate(0.000000,32.000000) scale(0.100000,-0.100000)"
fill="#000000" stroke="none">
<path d="M0 290 c0 -5 13 -10 29 -10 28 0 30 -3 45 -69 9 -38 13 -83 10 -100
-5 -24 -3 -31 8 -31 11 0 14 -7 10 -25 -5 -28 22 -45 41 -26 9 9 9 16 -1 31
-12 19 -9 20 41 20 51 0 53 -1 52 -27 0 -21 5 -28 20 -28 16 0 20 7 20 33 l1
32 -88 0 c-52 0 -88 4 -88 10 0 6 37 10 90 10 l89 0 21 69 c11 37 20 71 20 75
0 3 -53 6 -119 6 -110 0 -119 1 -124 20 -4 15 -14 20 -41 20 -20 0 -36 -4 -36
-10z"/>
</g>
</svg>
